<mxfile host="Electron" modified="2024-04-11T00:43:06.908Z" agent="Mozilla/5.0 (Windows NT 10.0; Win64; x64) AppleWebKit/537.36 (KHTML, like Gecko) draw.io/22.1.16 Chrome/120.0.6099.109 Electron/28.1.0 Safari/537.36" etag="DGwKmMXELY_Q3B5JZ19_" version="22.1.16" type="device">
  <diagram name="Page-1" id="K_YEXkYygeeE-VrIEM3K">
    <mxGraphModel dx="1050" dy="638" grid="1" gridSize="10" guides="1" tooltips="1" connect="1" arrows="1" fold="1" page="1" pageScale="1" pageWidth="850" pageHeight="1100" math="0" shadow="0">
      <root>
        <mxCell id="0" />
        <mxCell id="1" parent="0" />
        <mxCell id="k3Ob51mmszRrO9R-O7Uq-82" value="" style="shape=umlLifeline;perimeter=lifelinePerimeter;whiteSpace=wrap;html=1;container=1;dropTarget=0;collapsible=0;recursiveResize=0;outlineConnect=0;portConstraint=eastwest;newEdgeStyle={&quot;curved&quot;:0,&quot;rounded&quot;:0};participant=umlActor;" parent="1" vertex="1">
          <mxGeometry x="80" y="90" width="25" height="470" as="geometry" />
        </mxCell>
        <mxCell id="k3Ob51mmszRrO9R-O7Uq-83" value="" style="html=1;points=[[0,0,0,0,5],[0,1,0,0,-5],[1,0,0,0,5],[1,1,0,0,-5]];perimeter=orthogonalPerimeter;outlineConnect=0;targetShapes=umlLifeline;portConstraint=eastwest;newEdgeStyle={&quot;curved&quot;:0,&quot;rounded&quot;:0};" parent="k3Ob51mmszRrO9R-O7Uq-82" vertex="1">
          <mxGeometry x="8" y="70" width="10" height="360" as="geometry" />
        </mxCell>
        <mxCell id="k3Ob51mmszRrO9R-O7Uq-84" value="Actor" style="text;html=1;strokeColor=none;fillColor=none;align=center;verticalAlign=middle;whiteSpace=wrap;rounded=0;" parent="1" vertex="1">
          <mxGeometry x="60" y="60" width="60" height="30" as="geometry" />
        </mxCell>
        <mxCell id="k3Ob51mmszRrO9R-O7Uq-85" value="" style="shape=umlLifeline;perimeter=lifelinePerimeter;whiteSpace=wrap;html=1;container=1;dropTarget=0;collapsible=0;recursiveResize=0;outlineConnect=0;portConstraint=eastwest;newEdgeStyle={&quot;curved&quot;:0,&quot;rounded&quot;:0};participant=umlBoundary;" parent="1" vertex="1">
          <mxGeometry x="200" y="240" width="50" height="320" as="geometry" />
        </mxCell>
        <mxCell id="iD4ipZwJu5f4f-lg2thu-7" value="" style="html=1;points=[[0,0,0,0,5],[0,1,0,0,-5],[1,0,0,0,5],[1,1,0,0,-5]];perimeter=orthogonalPerimeter;outlineConnect=0;targetShapes=umlLifeline;portConstraint=eastwest;newEdgeStyle={&quot;curved&quot;:0,&quot;rounded&quot;:0};" parent="k3Ob51mmszRrO9R-O7Uq-85" vertex="1">
          <mxGeometry x="20" y="190" width="10" height="80" as="geometry" />
        </mxCell>
        <mxCell id="k3Ob51mmszRrO9R-O7Uq-87" value="CartPage" style="text;html=1;strokeColor=none;fillColor=none;align=center;verticalAlign=middle;whiteSpace=wrap;rounded=0;" parent="1" vertex="1">
          <mxGeometry x="200" y="210" width="60" height="30" as="geometry" />
        </mxCell>
        <mxCell id="k3Ob51mmszRrO9R-O7Uq-88" value="Click cart icon" style="html=1;verticalAlign=bottom;startArrow=none;endArrow=block;startSize=8;curved=0;rounded=0;startFill=0;" parent="1" edge="1">
          <mxGeometry x="0.008" relative="1" as="geometry">
            <mxPoint x="100" y="180" as="sourcePoint" />
            <mxPoint as="offset" />
            <mxPoint x="355.5" y="180" as="targetPoint" />
          </mxGeometry>
        </mxCell>
        <mxCell id="k3Ob51mmszRrO9R-O7Uq-90" value="" style="shape=umlLifeline;perimeter=lifelinePerimeter;whiteSpace=wrap;html=1;container=1;dropTarget=0;collapsible=0;recursiveResize=0;outlineConnect=0;portConstraint=eastwest;newEdgeStyle={&quot;curved&quot;:0,&quot;rounded&quot;:0};participant=umlControl;" parent="1" vertex="1">
          <mxGeometry x="340" y="90" width="40" height="470" as="geometry" />
        </mxCell>
        <mxCell id="k3Ob51mmszRrO9R-O7Uq-91" value="" style="html=1;points=[[0,0,0,0,5],[0,1,0,0,-5],[1,0,0,0,5],[1,1,0,0,-5]];perimeter=orthogonalPerimeter;outlineConnect=0;targetShapes=umlLifeline;portConstraint=eastwest;newEdgeStyle={&quot;curved&quot;:0,&quot;rounded&quot;:0};" parent="k3Ob51mmszRrO9R-O7Uq-90" vertex="1">
          <mxGeometry x="15" y="70" width="10" height="280" as="geometry" />
        </mxCell>
        <mxCell id="k3Ob51mmszRrO9R-O7Uq-92" value="CartController" style="text;html=1;strokeColor=none;fillColor=none;align=center;verticalAlign=middle;whiteSpace=wrap;rounded=0;" parent="1" vertex="1">
          <mxGeometry x="340" y="60" width="60" height="30" as="geometry" />
        </mxCell>
        <mxCell id="k3Ob51mmszRrO9R-O7Uq-93" value="CartService" style="shape=umlLifeline;perimeter=lifelinePerimeter;whiteSpace=wrap;html=1;container=1;dropTarget=0;collapsible=0;recursiveResize=0;outlineConnect=0;portConstraint=eastwest;newEdgeStyle={&quot;curved&quot;:0,&quot;rounded&quot;:0};" parent="1" vertex="1">
          <mxGeometry x="470" y="90" width="100" height="470" as="geometry" />
        </mxCell>
        <mxCell id="k3Ob51mmszRrO9R-O7Uq-94" value="" style="html=1;points=[[0,0,0,0,5],[0,1,0,0,-5],[1,0,0,0,5],[1,1,0,0,-5]];perimeter=orthogonalPerimeter;outlineConnect=0;targetShapes=umlLifeline;portConstraint=eastwest;newEdgeStyle={&quot;curved&quot;:0,&quot;rounded&quot;:0};" parent="k3Ob51mmszRrO9R-O7Uq-93" vertex="1">
          <mxGeometry x="45" y="130" width="10" height="180" as="geometry" />
        </mxCell>
        <mxCell id="k3Ob51mmszRrO9R-O7Uq-99" value="getCartUser(userId)" style="html=1;verticalAlign=bottom;startArrow=none;endArrow=block;startSize=8;curved=0;rounded=0;entryX=0;entryY=0;entryDx=0;entryDy=5;startFill=0;" parent="1" edge="1">
          <mxGeometry relative="1" as="geometry">
            <mxPoint x="365" y="220.00000000000023" as="sourcePoint" />
            <mxPoint as="offset" />
            <mxPoint x="515" y="220.00000000000023" as="targetPoint" />
          </mxGeometry>
        </mxCell>
        <mxCell id="k3Ob51mmszRrO9R-O7Uq-106" value="" style="shape=cylinder3;whiteSpace=wrap;html=1;boundedLbl=1;backgroundOutline=1;size=7.833343505859418;" parent="1" vertex="1">
          <mxGeometry x="701.25" y="90" width="37.5" height="40" as="geometry" />
        </mxCell>
        <mxCell id="k3Ob51mmszRrO9R-O7Uq-107" value="" style="endArrow=none;dashed=1;html=1;rounded=0;entryX=0.5;entryY=1;entryDx=0;entryDy=0;entryPerimeter=0;" parent="1" source="k3Ob51mmszRrO9R-O7Uq-112" target="k3Ob51mmszRrO9R-O7Uq-106" edge="1">
          <mxGeometry width="50" height="50" relative="1" as="geometry">
            <mxPoint x="720" y="840" as="sourcePoint" />
            <mxPoint x="461.25" y="50" as="targetPoint" />
          </mxGeometry>
        </mxCell>
        <mxCell id="k3Ob51mmszRrO9R-O7Uq-108" value="Database" style="text;html=1;strokeColor=none;fillColor=none;align=center;verticalAlign=middle;whiteSpace=wrap;rounded=0;" parent="1" vertex="1">
          <mxGeometry x="690" y="60" width="60" height="30" as="geometry" />
        </mxCell>
        <mxCell id="k3Ob51mmszRrO9R-O7Uq-109" value="" style="shape=umlDestroy;whiteSpace=wrap;html=1;strokeWidth=3;targetShapes=umlLifeline;" parent="1" vertex="1">
          <mxGeometry x="705" y="560" width="30" height="30" as="geometry" />
        </mxCell>
        <mxCell id="k3Ob51mmszRrO9R-O7Uq-110" value="findCartByUser(userId)" style="html=1;verticalAlign=bottom;endArrow=block;curved=0;rounded=0;" parent="1" target="k3Ob51mmszRrO9R-O7Uq-112" edge="1">
          <mxGeometry x="0.0033" width="80" relative="1" as="geometry">
            <mxPoint x="526" y="280" as="sourcePoint" />
            <mxPoint x="700" y="280" as="targetPoint" />
            <mxPoint as="offset" />
          </mxGeometry>
        </mxCell>
        <mxCell id="k3Ob51mmszRrO9R-O7Uq-127" value="" style="shape=umlDestroy;whiteSpace=wrap;html=1;strokeWidth=3;targetShapes=umlLifeline;" parent="1" vertex="1">
          <mxGeometry x="505" y="560" width="30" height="30" as="geometry" />
        </mxCell>
        <mxCell id="k3Ob51mmszRrO9R-O7Uq-128" value="" style="shape=umlDestroy;whiteSpace=wrap;html=1;strokeWidth=3;targetShapes=umlLifeline;" parent="1" vertex="1">
          <mxGeometry x="345" y="560" width="30" height="30" as="geometry" />
        </mxCell>
        <mxCell id="k3Ob51mmszRrO9R-O7Uq-129" value="" style="shape=umlDestroy;whiteSpace=wrap;html=1;strokeWidth=3;targetShapes=umlLifeline;" parent="1" vertex="1">
          <mxGeometry x="210" y="560" width="30" height="30" as="geometry" />
        </mxCell>
        <mxCell id="k3Ob51mmszRrO9R-O7Uq-130" value="" style="shape=umlDestroy;whiteSpace=wrap;html=1;strokeWidth=3;targetShapes=umlLifeline;" parent="1" vertex="1">
          <mxGeometry x="77.5" y="560" width="30" height="30" as="geometry" />
        </mxCell>
        <mxCell id="iD4ipZwJu5f4f-lg2thu-1" value="" style="endArrow=none;dashed=1;html=1;rounded=0;entryX=0.5;entryY=1;entryDx=0;entryDy=0;entryPerimeter=0;" parent="1" target="k3Ob51mmszRrO9R-O7Uq-112" edge="1">
          <mxGeometry width="50" height="50" relative="1" as="geometry">
            <mxPoint x="720" y="560" as="sourcePoint" />
            <mxPoint x="720" y="130" as="targetPoint" />
          </mxGeometry>
        </mxCell>
        <mxCell id="k3Ob51mmszRrO9R-O7Uq-112" value="" style="html=1;points=[[0,0,0,0,5],[0,1,0,0,-5],[1,0,0,0,5],[1,1,0,0,-5]];perimeter=orthogonalPerimeter;outlineConnect=0;targetShapes=umlLifeline;portConstraint=eastwest;newEdgeStyle={&quot;curved&quot;:0,&quot;rounded&quot;:0};" parent="1" vertex="1">
          <mxGeometry x="715" y="280" width="10" height="80" as="geometry" />
        </mxCell>
        <mxCell id="iD4ipZwJu5f4f-lg2thu-2" value="return User&#39;s cart" style="html=1;verticalAlign=bottom;endArrow=open;dashed=1;endSize=8;curved=0;rounded=0;" parent="1" edge="1">
          <mxGeometry relative="1" as="geometry">
            <mxPoint x="714" y="360" as="sourcePoint" />
            <mxPoint x="523.5" y="360" as="targetPoint" />
          </mxGeometry>
        </mxCell>
        <mxCell id="iD4ipZwJu5f4f-lg2thu-4" value="return User&#39;s cart" style="html=1;verticalAlign=bottom;endArrow=open;dashed=1;endSize=8;curved=0;rounded=0;" parent="1" edge="1">
          <mxGeometry relative="1" as="geometry">
            <mxPoint x="510" y="400" as="sourcePoint" />
            <mxPoint x="370" y="400" as="targetPoint" />
          </mxGeometry>
        </mxCell>
        <mxCell id="iD4ipZwJu5f4f-lg2thu-6" value="return User&#39;s cart" style="html=1;verticalAlign=bottom;endArrow=open;dashed=1;endSize=8;curved=0;rounded=0;" parent="1" edge="1">
          <mxGeometry relative="1" as="geometry">
            <mxPoint x="351" y="440" as="sourcePoint" />
            <mxPoint x="231" y="440" as="targetPoint" />
          </mxGeometry>
        </mxCell>
      </root>
    </mxGraphModel>
  </diagram>
</mxfile>
